<?xml version="1.0" encoding="iso-8859-1"?>
<!-- Uploaded to: SVG Repo, www.svgrepo.com, Generator: SVG Repo Mixer Tools -->
<svg fill="#000000" height="800px" width="800px" version="1.1" id="Layer_1" xmlns="http://www.w3.org/2000/svg" xmlns:xlink="http://www.w3.org/1999/xlink" 
	 viewBox="0 0 297 297" xml:space="preserve">
<g>
	<g>
		<path d="M222.257,91.394c-24.66-24.818-56.148-40.348-90.266-44.839l19.838-23.072c2.423-2.817,3.098-6.739,1.757-10.204
			c-1.341-3.465-4.481-5.911-8.168-6.365l-55.705-6.84c-3.34-0.406-6.671,0.879-8.867,3.432L31.372,61.044
			c-2.653,3.083-3.19,7.46-1.363,11.093l34.084,67.797c1.513,3.01,4.43,5.064,7.774,5.475l55.705,6.84
			c3.701,0.456,7.344-1.17,9.481-4.222c2.137-3.052,2.415-7.034,0.724-10.353l-14.58-28.609
			c46.257,8.028,82.625,47.668,82.625,93.675v84.185c0,5.564,4.511,10.075,10.075,10.075h42.092c5.564,0,10.075-4.511,10.075-10.075
			v-84.184C268.064,160.668,251.796,121.124,222.257,91.394z M247.915,276.851h-0.001h-21.942v-74.11
			c0-62.502-54.94-115.306-119.972-115.306c-3.506,0-6.759,1.822-8.59,4.811c-1.832,2.989-1.978,6.715-0.387,9.839l14.196,27.855
			l-31.545-3.873L51.029,69.089l41.579-48.356l31.669,3.888l-20.708,24.084c-2.568,2.985-3.16,7.192-1.517,10.771
			c1.642,3.578,5.218,5.872,9.156,5.872c75.38,0,136.707,61.635,136.707,137.393V276.851z"/>
	</g>
</g>
</svg>